<mxfile host="app.diagrams.net" agent="Mozilla/5.0 (Windows NT 10.0; Win64; x64) AppleWebKit/537.36 (KHTML, like Gecko) Chrome/131.0.0.0 Safari/537.36" version="26.0.8">
  <diagram name="페이지-1" id="yf85_vXi6DP6XtGqAj8g">
    <mxGraphModel dx="2261" dy="746" grid="1" gridSize="10" guides="1" tooltips="1" connect="1" arrows="1" fold="1" page="1" pageScale="1" pageWidth="827" pageHeight="1169" math="0" shadow="0">
      <root>
        <mxCell id="0" />
        <mxCell id="1" parent="0" />
        <mxCell id="JvejWWRDax9Ub5R3-1ta-1" value="고객" style="whiteSpace=wrap;html=1;align=center;" vertex="1" parent="1">
          <mxGeometry x="150" y="160" width="130" height="60" as="geometry" />
        </mxCell>
        <mxCell id="JvejWWRDax9Ub5R3-1ta-2" value="고객" style="ellipse;whiteSpace=wrap;html=1;align=center;" vertex="1" parent="1">
          <mxGeometry x="340" y="290" width="100" height="40" as="geometry" />
        </mxCell>
        <mxCell id="JvejWWRDax9Ub5R3-1ta-4" value="" style="endArrow=none;html=1;rounded=0;exitX=0.75;exitY=1;exitDx=0;exitDy=0;entryX=0.4;entryY=0;entryDx=0;entryDy=0;entryPerimeter=0;" edge="1" parent="1" source="JvejWWRDax9Ub5R3-1ta-1" target="JvejWWRDax9Ub5R3-1ta-2">
          <mxGeometry relative="1" as="geometry">
            <mxPoint x="330" y="380" as="sourcePoint" />
            <mxPoint x="490" y="380" as="targetPoint" />
          </mxGeometry>
        </mxCell>
        <mxCell id="JvejWWRDax9Ub5R3-1ta-11" value="전화번호" style="ellipse;whiteSpace=wrap;html=1;align=center;fontStyle=4;" vertex="1" parent="1">
          <mxGeometry x="50" y="80" width="100" height="40" as="geometry" />
        </mxCell>
        <mxCell id="JvejWWRDax9Ub5R3-1ta-12" value="고객코드" style="ellipse;whiteSpace=wrap;html=1;align=center;fontStyle=4;" vertex="1" parent="1">
          <mxGeometry x="280" y="60" width="100" height="40" as="geometry" />
        </mxCell>
        <mxCell id="JvejWWRDax9Ub5R3-1ta-13" value="이메일" style="ellipse;whiteSpace=wrap;html=1;align=center;fontStyle=4;" vertex="1" parent="1">
          <mxGeometry x="230" y="280" width="100" height="40" as="geometry" />
        </mxCell>
        <mxCell id="JvejWWRDax9Ub5R3-1ta-14" value="" style="endArrow=none;html=1;rounded=0;" edge="1" parent="1" source="JvejWWRDax9Ub5R3-1ta-1" target="JvejWWRDax9Ub5R3-1ta-13">
          <mxGeometry relative="1" as="geometry">
            <mxPoint x="258" y="230" as="sourcePoint" />
            <mxPoint x="420" y="240" as="targetPoint" />
            <Array as="points">
              <mxPoint x="240" y="240" />
            </Array>
          </mxGeometry>
        </mxCell>
        <mxCell id="JvejWWRDax9Ub5R3-1ta-15" value="" style="endArrow=none;html=1;rounded=0;entryX=0.25;entryY=0.1;entryDx=0;entryDy=0;entryPerimeter=0;" edge="1" parent="1" source="JvejWWRDax9Ub5R3-1ta-1" target="JvejWWRDax9Ub5R3-1ta-12">
          <mxGeometry relative="1" as="geometry">
            <mxPoint x="260" y="220" as="sourcePoint" />
            <mxPoint x="430" y="250" as="targetPoint" />
          </mxGeometry>
        </mxCell>
        <mxCell id="JvejWWRDax9Ub5R3-1ta-16" value="" style="endArrow=none;html=1;rounded=0;exitX=0.75;exitY=-0.025;exitDx=0;exitDy=0;exitPerimeter=0;" edge="1" parent="1" source="JvejWWRDax9Ub5R3-1ta-11" target="JvejWWRDax9Ub5R3-1ta-1">
          <mxGeometry relative="1" as="geometry">
            <mxPoint x="278" y="250" as="sourcePoint" />
            <mxPoint x="440" y="260" as="targetPoint" />
          </mxGeometry>
        </mxCell>
        <mxCell id="JvejWWRDax9Ub5R3-1ta-17" value="주소" style="ellipse;whiteSpace=wrap;html=1;align=center;" vertex="1" parent="1">
          <mxGeometry x="364" y="140" width="100" height="40" as="geometry" />
        </mxCell>
        <mxCell id="JvejWWRDax9Ub5R3-1ta-18" value="상세주소" style="ellipse;whiteSpace=wrap;html=1;align=center;" vertex="1" parent="1">
          <mxGeometry x="490" y="160" width="100" height="40" as="geometry" />
        </mxCell>
        <mxCell id="JvejWWRDax9Ub5R3-1ta-19" value="기본주소" style="ellipse;whiteSpace=wrap;html=1;align=center;" vertex="1" parent="1">
          <mxGeometry x="480" y="80" width="100" height="40" as="geometry" />
        </mxCell>
        <mxCell id="JvejWWRDax9Ub5R3-1ta-20" value="" style="endArrow=none;html=1;rounded=0;entryX=0.24;entryY=0.85;entryDx=0;entryDy=0;entryPerimeter=0;" edge="1" parent="1" source="JvejWWRDax9Ub5R3-1ta-1" target="JvejWWRDax9Ub5R3-1ta-17">
          <mxGeometry relative="1" as="geometry">
            <mxPoint x="258" y="230" as="sourcePoint" />
            <mxPoint x="420" y="240" as="targetPoint" />
          </mxGeometry>
        </mxCell>
        <mxCell id="JvejWWRDax9Ub5R3-1ta-21" value="" style="endArrow=none;html=1;rounded=0;exitX=0.77;exitY=0.925;exitDx=0;exitDy=0;entryX=0;entryY=1;entryDx=0;entryDy=0;exitPerimeter=0;" edge="1" parent="1" source="JvejWWRDax9Ub5R3-1ta-17" target="JvejWWRDax9Ub5R3-1ta-18">
          <mxGeometry relative="1" as="geometry">
            <mxPoint x="268" y="240" as="sourcePoint" />
            <mxPoint x="430" y="250" as="targetPoint" />
          </mxGeometry>
        </mxCell>
        <mxCell id="JvejWWRDax9Ub5R3-1ta-22" value="" style="endArrow=none;html=1;rounded=0;exitX=0.94;exitY=0.25;exitDx=0;exitDy=0;entryX=0.31;entryY=0.925;entryDx=0;entryDy=0;entryPerimeter=0;exitPerimeter=0;" edge="1" parent="1" source="JvejWWRDax9Ub5R3-1ta-17" target="JvejWWRDax9Ub5R3-1ta-19">
          <mxGeometry relative="1" as="geometry">
            <mxPoint x="278" y="250" as="sourcePoint" />
            <mxPoint x="440" y="260" as="targetPoint" />
          </mxGeometry>
        </mxCell>
        <mxCell id="JvejWWRDax9Ub5R3-1ta-23" value="가입일" style="ellipse;whiteSpace=wrap;html=1;align=center;" vertex="1" parent="1">
          <mxGeometry x="-50" y="180" width="100" height="40" as="geometry" />
        </mxCell>
        <mxCell id="JvejWWRDax9Ub5R3-1ta-24" value="" style="endArrow=none;html=1;rounded=0;entryX=0;entryY=0;entryDx=0;entryDy=0;" edge="1" parent="1" source="JvejWWRDax9Ub5R3-1ta-1" target="JvejWWRDax9Ub5R3-1ta-23">
          <mxGeometry relative="1" as="geometry">
            <mxPoint x="288" y="260" as="sourcePoint" />
            <mxPoint x="450" y="270" as="targetPoint" />
          </mxGeometry>
        </mxCell>
        <mxCell id="JvejWWRDax9Ub5R3-1ta-27" value="지역" style="whiteSpace=wrap;html=1;align=center;" vertex="1" parent="1">
          <mxGeometry x="780" y="270" width="130" height="60" as="geometry" />
        </mxCell>
        <mxCell id="JvejWWRDax9Ub5R3-1ta-28" value="지역명" style="ellipse;whiteSpace=wrap;html=1;align=center;" vertex="1" parent="1">
          <mxGeometry x="850" y="140" width="100" height="40" as="geometry" />
        </mxCell>
        <mxCell id="JvejWWRDax9Ub5R3-1ta-30" value="지역코드" style="ellipse;whiteSpace=wrap;html=1;align=center;fontStyle=4;" vertex="1" parent="1">
          <mxGeometry x="870" y="350" width="100" height="40" as="geometry" />
        </mxCell>
        <mxCell id="JvejWWRDax9Ub5R3-1ta-31" value="" style="endArrow=none;html=1;rounded=0;exitX=1;exitY=0;exitDx=0;exitDy=0;" edge="1" parent="1" source="JvejWWRDax9Ub5R3-1ta-28" target="JvejWWRDax9Ub5R3-1ta-27">
          <mxGeometry relative="1" as="geometry">
            <mxPoint x="753" y="250" as="sourcePoint" />
            <mxPoint x="790" y="311" as="targetPoint" />
            <Array as="points">
              <mxPoint x="930" y="240" />
            </Array>
          </mxGeometry>
        </mxCell>
        <mxCell id="JvejWWRDax9Ub5R3-1ta-32" value="" style="endArrow=none;html=1;rounded=0;exitX=0.683;exitY=0.992;exitDx=0;exitDy=0;exitPerimeter=0;" edge="1" parent="1" source="JvejWWRDax9Ub5R3-1ta-30" target="JvejWWRDax9Ub5R3-1ta-27">
          <mxGeometry relative="1" as="geometry">
            <mxPoint x="627" y="360" as="sourcePoint" />
            <mxPoint x="664" y="421" as="targetPoint" />
            <Array as="points">
              <mxPoint x="950" y="300" />
            </Array>
          </mxGeometry>
        </mxCell>
        <mxCell id="JvejWWRDax9Ub5R3-1ta-33" value="제품" style="whiteSpace=wrap;html=1;align=center;" vertex="1" parent="1">
          <mxGeometry x="80" y="470" width="130" height="60" as="geometry" />
        </mxCell>
        <mxCell id="JvejWWRDax9Ub5R3-1ta-34" value="제품명" style="ellipse;whiteSpace=wrap;html=1;align=center;" vertex="1" parent="1">
          <mxGeometry x="-200" y="515" width="100" height="40" as="geometry" />
        </mxCell>
        <mxCell id="JvejWWRDax9Ub5R3-1ta-35" value="제품코드" style="ellipse;whiteSpace=wrap;html=1;align=center;fontStyle=4;" vertex="1" parent="1">
          <mxGeometry x="-210" y="575" width="100" height="40" as="geometry" />
        </mxCell>
        <mxCell id="JvejWWRDax9Ub5R3-1ta-37" value="" style="endArrow=none;html=1;rounded=0;exitX=0.683;exitY=0.992;exitDx=0;exitDy=0;exitPerimeter=0;" edge="1" parent="1" source="JvejWWRDax9Ub5R3-1ta-35" target="JvejWWRDax9Ub5R3-1ta-33">
          <mxGeometry relative="1" as="geometry">
            <mxPoint x="-133" y="585" as="sourcePoint" />
            <mxPoint x="-96" y="646" as="targetPoint" />
            <Array as="points">
              <mxPoint x="-123" y="605" />
            </Array>
          </mxGeometry>
        </mxCell>
        <mxCell id="JvejWWRDax9Ub5R3-1ta-38" value="제품구분&lt;span style=&quot;color: rgba(0, 0, 0, 0); font-family: monospace; font-size: 0px; text-align: start; text-wrap-mode: nowrap;&quot;&gt;%3CmxGraphModel%3E%3Croot%3E%3CmxCell%20id%3D%220%22%2F%3E%3CmxCell%20id%3D%221%22%20parent%3D%220%22%2F%3E%3CmxCell%20id%3D%222%22%20value%3D%22%EC%A7%80%EC%97%AD%22%20style%3D%22whiteSpace%3Dwrap%3Bhtml%3D1%3Balign%3Dcenter%3B%22%20vertex%3D%221%22%20parent%3D%221%22%3E%3CmxGeometry%20x%3D%22480%22%20y%3D%22360%22%20width%3D%22130%22%20height%3D%2260%22%20as%3D%22geometry%22%2F%3E%3C%2FmxCell%3E%3CmxCell%20id%3D%223%22%20value%3D%22%EC%A7%80%EC%97%AD%EB%AA%85%22%20style%3D%22ellipse%3BwhiteSpace%3Dwrap%3Bhtml%3D1%3Balign%3Dcenter%3B%22%20vertex%3D%221%22%20parent%3D%221%22%3E%3CmxGeometry%20x%3D%22260%22%20y%3D%22380%22%20width%3D%22100%22%20height%3D%2240%22%20as%3D%22geometry%22%2F%3E%3C%2FmxCell%3E%3CmxCell%20id%3D%224%22%20value%3D%22%EC%A7%80%EC%97%AD%EC%BD%94%EB%93%9C%22%20style%3D%22ellipse%3BwhiteSpace%3Dwrap%3Bhtml%3D1%3Balign%3Dcenter%3BfontStyle%3D4%3B%22%20vertex%3D%221%22%20parent%3D%221%22%3E%3CmxGeometry%20x%3D%22250%22%20y%3D%22440%22%20width%3D%22100%22%20height%3D%2240%22%20as%3D%22geometry%22%2F%3E%3C%2FmxCell%3E%3CmxCell%20id%3D%225%22%20value%3D%22%22%20style%3D%22endArrow%3Dnone%3Bhtml%3D1%3Brounded%3D0%3BexitX%3D1%3BexitY%3D0%3BexitDx%3D0%3BexitDy%3D0%3B%22%20edge%3D%221%22%20source%3D%223%22%20target%3D%222%22%20parent%3D%221%22%3E%3CmxGeometry%20relative%3D%221%22%20as%3D%22geometry%22%3E%3CmxPoint%20x%3D%22453%22%20y%3D%22340%22%20as%3D%22sourcePoint%22%2F%3E%3CmxPoint%20x%3D%22490%22%20y%3D%22401%22%20as%3D%22targetPoint%22%2F%3E%3CArray%20as%3D%22points%22%3E%3CmxPoint%20x%3D%22463%22%20y%3D%22360%22%2F%3E%3C%2FArray%3E%3C%2FmxGeometry%3E%3C%2FmxCell%3E%3CmxCell%20id%3D%226%22%20value%3D%22%22%20style%3D%22endArrow%3Dnone%3Bhtml%3D1%3Brounded%3D0%3BexitX%3D0.683%3BexitY%3D0.992%3BexitDx%3D0%3BexitDy%3D0%3BexitPerimeter%3D0%3B%22%20edge%3D%221%22%20source%3D%224%22%20target%3D%222%22%20parent%3D%221%22%3E%3CmxGeometry%20relative%3D%221%22%20as%3D%22geometry%22%3E%3CmxPoint%20x%3D%22327%22%20y%3D%22450%22%20as%3D%22sourcePoint%22%2F%3E%3CmxPoint%20x%3D%22364%22%20y%3D%22511%22%20as%3D%22targetPoint%22%2F%3E%3CArray%20as%3D%22points%22%3E%3CmxPoint%20x%3D%22337%22%20y%3D%22470%22%2F%3E%3C%2FArray%3E%3C%2FmxGeometry%3E%3C%2FmxCell%3E%3C%2Froot%3E%3C%2FmxGraphModel%3E&lt;/span&gt;" style="ellipse;whiteSpace=wrap;html=1;align=center;" vertex="1" parent="1">
          <mxGeometry x="40" y="595" width="100" height="40" as="geometry" />
        </mxCell>
        <mxCell id="JvejWWRDax9Ub5R3-1ta-40" value="제품색상" style="ellipse;shape=doubleEllipse;margin=3;whiteSpace=wrap;html=1;align=center;" vertex="1" parent="1">
          <mxGeometry x="330" y="515" width="100" height="40" as="geometry" />
        </mxCell>
        <mxCell id="JvejWWRDax9Ub5R3-1ta-41" value="가격" style="ellipse;whiteSpace=wrap;html=1;align=center;" vertex="1" parent="1">
          <mxGeometry x="210" y="570" width="100" height="40" as="geometry" />
        </mxCell>
        <mxCell id="JvejWWRDax9Ub5R3-1ta-44" value="" style="endArrow=none;html=1;rounded=0;exitX=1;exitY=0;exitDx=0;exitDy=0;" edge="1" parent="1" target="JvejWWRDax9Ub5R3-1ta-33">
          <mxGeometry relative="1" as="geometry">
            <mxPoint x="-50" y="621" as="sourcePoint" />
            <mxPoint x="85" y="601" as="targetPoint" />
            <Array as="points">
              <mxPoint x="50" y="580" />
            </Array>
          </mxGeometry>
        </mxCell>
        <mxCell id="JvejWWRDax9Ub5R3-1ta-45" value="" style="endArrow=none;html=1;rounded=0;exitX=0.258;exitY=0.054;exitDx=0;exitDy=0;exitPerimeter=0;entryX=0.821;entryY=1.022;entryDx=0;entryDy=0;entryPerimeter=0;" edge="1" parent="1" source="JvejWWRDax9Ub5R3-1ta-38" target="JvejWWRDax9Ub5R3-1ta-33">
          <mxGeometry relative="1" as="geometry">
            <mxPoint x="75" y="595" as="sourcePoint" />
            <mxPoint x="237" y="530" as="targetPoint" />
            <Array as="points">
              <mxPoint x="94" y="585" />
            </Array>
          </mxGeometry>
        </mxCell>
        <mxCell id="JvejWWRDax9Ub5R3-1ta-46" value="" style="endArrow=none;html=1;rounded=0;" edge="1" parent="1" source="JvejWWRDax9Ub5R3-1ta-41" target="JvejWWRDax9Ub5R3-1ta-33">
          <mxGeometry relative="1" as="geometry">
            <mxPoint x="-22" y="615" as="sourcePoint" />
            <mxPoint x="140" y="550" as="targetPoint" />
            <Array as="points">
              <mxPoint x="180" y="570" />
            </Array>
          </mxGeometry>
        </mxCell>
        <mxCell id="JvejWWRDax9Ub5R3-1ta-47" value="관리" style="shape=rhombus;perimeter=rhombusPerimeter;whiteSpace=wrap;html=1;align=center;" vertex="1" parent="1">
          <mxGeometry x="520" y="240" width="120" height="60" as="geometry" />
        </mxCell>
        <mxCell id="JvejWWRDax9Ub5R3-1ta-48" value="" style="endArrow=none;html=1;rounded=0;exitX=0.938;exitY=0.221;exitDx=0;exitDy=0;entryX=0.042;entryY=0.05;entryDx=0;entryDy=0;entryPerimeter=0;exitPerimeter=0;" edge="1" parent="1" source="JvejWWRDax9Ub5R3-1ta-34" target="JvejWWRDax9Ub5R3-1ta-33">
          <mxGeometry relative="1" as="geometry">
            <mxPoint x="-140" y="535" as="sourcePoint" />
            <mxPoint x="20" y="450" as="targetPoint" />
            <Array as="points" />
          </mxGeometry>
        </mxCell>
        <mxCell id="JvejWWRDax9Ub5R3-1ta-49" value="구매" style="shape=rhombus;perimeter=rhombusPerimeter;whiteSpace=wrap;html=1;align=center;" vertex="1" parent="1">
          <mxGeometry x="100" y="330" width="120" height="60" as="geometry" />
        </mxCell>
        <mxCell id="JvejWWRDax9Ub5R3-1ta-50" value="" style="endArrow=none;html=1;rounded=0;entryX=0;entryY=0.5;entryDx=0;entryDy=0;exitX=0.985;exitY=0.883;exitDx=0;exitDy=0;exitPerimeter=0;" edge="1" parent="1" source="JvejWWRDax9Ub5R3-1ta-1" target="JvejWWRDax9Ub5R3-1ta-47">
          <mxGeometry relative="1" as="geometry">
            <mxPoint x="270" y="210" as="sourcePoint" />
            <mxPoint x="430" y="210" as="targetPoint" />
          </mxGeometry>
        </mxCell>
        <mxCell id="JvejWWRDax9Ub5R3-1ta-52" value="N" style="edgeLabel;html=1;align=center;verticalAlign=middle;resizable=0;points=[];" vertex="1" connectable="0" parent="JvejWWRDax9Ub5R3-1ta-50">
          <mxGeometry x="0.5023" y="-1" relative="1" as="geometry">
            <mxPoint x="50" as="offset" />
          </mxGeometry>
        </mxCell>
        <mxCell id="JvejWWRDax9Ub5R3-1ta-51" value="" style="endArrow=none;html=1;rounded=0;exitX=0.9;exitY=0.397;exitDx=0;exitDy=0;exitPerimeter=0;entryX=0.01;entryY=0.106;entryDx=0;entryDy=0;entryPerimeter=0;" edge="1" parent="1" source="JvejWWRDax9Ub5R3-1ta-47" target="JvejWWRDax9Ub5R3-1ta-27">
          <mxGeometry relative="1" as="geometry">
            <mxPoint x="620" y="280" as="sourcePoint" />
            <mxPoint x="780" y="195" as="targetPoint" />
            <Array as="points">
              <mxPoint x="639" y="270" />
            </Array>
          </mxGeometry>
        </mxCell>
        <mxCell id="JvejWWRDax9Ub5R3-1ta-53" value="1" style="edgeLabel;html=1;align=center;verticalAlign=middle;resizable=0;points=[];" vertex="1" connectable="0" parent="JvejWWRDax9Ub5R3-1ta-51">
          <mxGeometry x="-0.4189" y="-2" relative="1" as="geometry">
            <mxPoint x="-21" y="-13" as="offset" />
          </mxGeometry>
        </mxCell>
        <mxCell id="JvejWWRDax9Ub5R3-1ta-54" value="구매번호" style="ellipse;whiteSpace=wrap;html=1;align=center;fontStyle=4;" vertex="1" parent="1">
          <mxGeometry x="-160" y="320" width="100" height="40" as="geometry" />
        </mxCell>
        <mxCell id="JvejWWRDax9Ub5R3-1ta-57" value="구매일자" style="ellipse;whiteSpace=wrap;html=1;align=center;" vertex="1" parent="1">
          <mxGeometry x="-210" y="390" width="100" height="40" as="geometry" />
        </mxCell>
        <mxCell id="JvejWWRDax9Ub5R3-1ta-58" value="수량" style="ellipse;whiteSpace=wrap;html=1;align=center;" vertex="1" parent="1">
          <mxGeometry x="-190" y="270" width="100" height="40" as="geometry" />
        </mxCell>
        <mxCell id="JvejWWRDax9Ub5R3-1ta-61" value="" style="endArrow=none;html=1;rounded=0;entryX=0.388;entryY=-0.047;entryDx=0;entryDy=0;entryPerimeter=0;exitX=0.456;exitY=1.022;exitDx=0;exitDy=0;exitPerimeter=0;" edge="1" parent="1" source="JvejWWRDax9Ub5R3-1ta-49" target="JvejWWRDax9Ub5R3-1ta-33">
          <mxGeometry relative="1" as="geometry">
            <mxPoint x="150" y="400" as="sourcePoint" />
            <mxPoint x="258" y="390" as="targetPoint" />
          </mxGeometry>
        </mxCell>
        <mxCell id="JvejWWRDax9Ub5R3-1ta-70" value="M" style="edgeLabel;html=1;align=center;verticalAlign=middle;resizable=0;points=[];" vertex="1" connectable="0" parent="JvejWWRDax9Ub5R3-1ta-61">
          <mxGeometry x="-0.4429" y="2" relative="1" as="geometry">
            <mxPoint as="offset" />
          </mxGeometry>
        </mxCell>
        <mxCell id="JvejWWRDax9Ub5R3-1ta-62" value="" style="endArrow=none;html=1;rounded=0;entryX=0.308;entryY=1;entryDx=0;entryDy=0;entryPerimeter=0;exitX=0.5;exitY=0;exitDx=0;exitDy=0;" edge="1" parent="1" source="JvejWWRDax9Ub5R3-1ta-49" target="JvejWWRDax9Ub5R3-1ta-1">
          <mxGeometry relative="1" as="geometry">
            <mxPoint x="40" y="240" as="sourcePoint" />
            <mxPoint x="215" y="306" as="targetPoint" />
          </mxGeometry>
        </mxCell>
        <mxCell id="JvejWWRDax9Ub5R3-1ta-71" value="N" style="edgeLabel;html=1;align=center;verticalAlign=middle;resizable=0;points=[];" vertex="1" connectable="0" parent="JvejWWRDax9Ub5R3-1ta-62">
          <mxGeometry x="-0.0793" y="-4" relative="1" as="geometry">
            <mxPoint as="offset" />
          </mxGeometry>
        </mxCell>
        <mxCell id="JvejWWRDax9Ub5R3-1ta-63" value="" style="endArrow=none;html=1;rounded=0;entryX=0.422;entryY=-0.071;entryDx=0;entryDy=0;entryPerimeter=0;exitX=1;exitY=0.25;exitDx=0;exitDy=0;" edge="1" parent="1" source="JvejWWRDax9Ub5R3-1ta-33" target="JvejWWRDax9Ub5R3-1ta-40">
          <mxGeometry relative="1" as="geometry">
            <mxPoint x="140" y="500" as="sourcePoint" />
            <mxPoint x="315" y="566" as="targetPoint" />
          </mxGeometry>
        </mxCell>
        <mxCell id="JvejWWRDax9Ub5R3-1ta-64" value="" style="endArrow=none;html=1;rounded=0;exitX=1;exitY=0.5;exitDx=0;exitDy=0;" edge="1" parent="1" source="JvejWWRDax9Ub5R3-1ta-57" target="JvejWWRDax9Ub5R3-1ta-49">
          <mxGeometry relative="1" as="geometry">
            <mxPoint x="-7.5" y="400" as="sourcePoint" />
            <mxPoint x="167.5" y="466" as="targetPoint" />
          </mxGeometry>
        </mxCell>
        <mxCell id="JvejWWRDax9Ub5R3-1ta-65" value="" style="endArrow=none;html=1;rounded=0;exitX=0.938;exitY=0.346;exitDx=0;exitDy=0;exitPerimeter=0;" edge="1" parent="1" source="JvejWWRDax9Ub5R3-1ta-54" target="JvejWWRDax9Ub5R3-1ta-49">
          <mxGeometry relative="1" as="geometry">
            <mxPoint x="-57" y="337" as="sourcePoint" />
            <mxPoint x="117.5" y="403" as="targetPoint" />
          </mxGeometry>
        </mxCell>
        <mxCell id="JvejWWRDax9Ub5R3-1ta-67" value="" style="endArrow=none;html=1;rounded=0;entryX=0.955;entryY=0.7;entryDx=0;entryDy=0;entryPerimeter=0;" edge="1" parent="1" source="JvejWWRDax9Ub5R3-1ta-49" target="JvejWWRDax9Ub5R3-1ta-58">
          <mxGeometry relative="1" as="geometry">
            <mxPoint x="125" y="431" as="sourcePoint" />
            <mxPoint x="310" y="390" as="targetPoint" />
          </mxGeometry>
        </mxCell>
      </root>
    </mxGraphModel>
  </diagram>
</mxfile>
